<?xml version="1.0" encoding="UTF-8"?>
<svg width="700pt" height="700pt" version="1.1" viewBox="0 0 700 700" xmlns="http://www.w3.org/2000/svg" xmlns:xlink="http://www.w3.org/1999/xlink">

 <g>
  <path d="m427.6 151.27c0.17969-10.051-2.2266-17.641-7.1484-22.566-0.28906-0.28906-0.60938-0.56641-0.91406-0.84766l0.48828-3.6992v-0.007812l6.0703-46.148c1.4258-10.828-7.332-19.672-21.293-21.508-10.34-1.3633-21.402 2.0547-25.156 10.914-1.2812-3.8906-3.9375-7.2031-7.8633-9.5859-7.8555-4.7695-19.43-5.0039-27.531-0.55859-5.957 3.2656-9.3125 8.6016-9.4531 15.016l-0.019531 0.82422c-3.8945-5.832-11.859-9.2031-21.762-8.6445-10.422 0.59766-20.688 6.0898-22.242 15.566-4.1562-2.9961-10.227-4.3672-17.25-3.5664-12.602 1.4453-20.664 8.9219-19.602 18.18l5.6836 49.543c0.10938 0.96484 0.32031 1.8828 0.60938 2.7617-0.24219 0.55469-0.37891 1.168-0.37891 1.8125v7.3594c0 8.8281 1.707 38.934 23.648 55.672 9.1055 6.9453 20.258 10.426 33.328 10.426 7.3398 0 15.297-1.1133 23.824-3.3125 3.3594 1.7969 7.2109 2.7109 11.52 2.7109l2.0078 0.003906c0.71875 0 1.4492 0.003907 2.1992 0.003907 15.008 0 36.281-0.53906 49.293-12.656 9.6367-8.9727 21.566-36.699 21.941-57.691zm-39.566-78.277c0.85156-6.4805 9.75-7.7031 15.508-6.9453 4.8906 0.64453 13.895 3.7031 12.996 10.672-0.007812 0.035156-0.011718 0.070312-0.015624 0.10156l-5.8984 44.848c-7.0039-3.7773-16.27-7.0117-27.711-9.6797zm-44.059 12.066v-0.007813l0.27734-12.57c0.066406-2.9805 1.5938-5.3125 4.5508-6.9297 5.1523-2.8281 13.094-2.6758 18.074 0.35156 2.8945 1.7578 4.2695 4.1016 4.2031 7.1758l-0.003906 0.03125v0.054687l-0.71875 36.285c-9.9375-1.7305-19.312-2.6133-26.863-2.5469zm-30.414-11.094c5.5312-0.30469 13.887 1.3789 14.277 7.3359 0.74609 11.441 1.2344 16.625 1.9727 24.469l0.27344 2.9336c-12.629 4.1406-18.355 15.379-17.383 25.75 0.47266 5.0586 2.5859 10.008 6.1211 13.711-3.9961 0.99219-8.4219 0.55469-11.684-1.3359-2.9297-1.6953-4.4844-4.2812-4.6211-7.6836l-1.9297-48.473c-0.015625-0.38672-0.089844-0.75391-0.1875-1.1094-0.11328-2.3945-0.21875-4.6562-0.32031-6.6953-0.29688-5.9492 7.8984-8.582 13.48-8.9023zm-45.605 69.184-4.4844-39.07c-0.003906-0.019531-0.003906-0.042969-0.007812-0.066406l-1.1875-10.336c-0.55078-4.7852 5.8789-8.1367 12.203-8.8633 5.1758-0.59766 13.105 0.48438 13.723 5.8867l0.003906 0.039062c0 0.011719 0.003907 0.023438 0.003907 0.035157l4.3398 37.824c0.085938 2.0547 0.13672 3.2891 0.13672 3.3516 0 0.042969 0.015625 0.078125 0.015625 0.12109l0.29688 7.4609c0.046875 1.1641 0.21875 2.2734 0.44531 3.3633-1.543 3.3555-6.6836 5.6367-11.766 6.2188-5.1758 0.59766-13.105-0.48438-13.727-5.8867zm86.234 69.332-2.0234-0.003907c-4.4531 0-7.918-1.3867-10.598-4.2461-7.375-7.8633-6.4492-23.777-6.4375-23.938 0.16406-2.5117-1.7383-4.6836-4.25-4.8555-2.5352-0.15234-4.6914 1.7344-4.8594 4.25-0.050782 0.73828-0.99219 16.727 6.4805 27.715-18.125 3.6133-32.727 1.3125-43.473-6.8828-14.785-11.277-20.055-32.402-20.055-48.41v-0.25c2.8125 1.1797 6.1211 1.8281 9.793 1.8281 1.2578 0 2.5547-0.074219 3.8867-0.22656 6.3516-0.73047 11.547-2.9922 15.004-6.2422 1.3203 1.4727 2.8789 2.7773 4.7148 3.8398 3.5938 2.082 7.9023 3.125 12.266 3.125 4.1797 0 8.4062-0.96094 12.09-2.8828 0.72656-0.37891 1.293-0.92969 1.7188-1.5625 2.1172 0.51172 4.4219 0.72266 6.918 0.54688 28.688-2.0742 36.281 8.6523 36.535 9.0312 1.2773 2.1211 4.0195 2.8438 6.1836 1.6016 2.1875-1.2539 2.9414-4.0469 1.6836-6.2305-0.94531-1.6445-10.25-16.02-45.062-13.508-8.1172 0.58594-12.336-5.3984-12.914-11.582-0.71094-7.5898 3.8906-15.859 15.781-17.234 7.5156-0.87109 19.555-0.03125 32.207 2.2422 21.746 3.9062 37.449 9.7852 44.215 16.551 3.0625 3.0586 4.6094 8.5742 4.4766 15.945-0.34766 19.41-11.781 44.422-19.023 51.164-11.031 10.273-31.625 10.203-45.258 10.215z"/>
  <path d="m298.27 358.66c-6.1367-5.4453-17.039-7.0156-26.469 2.4219-5.1328 5.1289-11.363 12.402-17.391 19.43-8.8008 10.266-22.062 26.098-26.016 26.422-1.0703 0.085937-2.875-2.1484-2.875-16.535l0.003906-102.47c0-10.695-8.8047-16.465-17.086-16.465-2.9219 0-5.6719 0.74609-8.0469 2.0703-0.44531-8.5469-7.0508-14.465-16.457-14.465-9.2734 0-18.844 5.9375-19.043 15.887-3.2227-1.9922-7.0625-3.0352-10.816-3.0352-4.5078 0-8.7188 1.3945-11.859 3.9258-3.6641 2.9531-5.6836 7.3438-5.6836 12.359v15.23c-2.6484-1.293-5.6992-1.9609-8.7422-1.9609-8.3398 0-16.785 4.8555-16.785 14.137v124.53c0 24.418 12.848 49.141 37.398 49.141h42.246c27.258 0 48.805-25.691 55.887-34.133 5.1641-6.1562 16.965-22.379 28.375-38.074 9.4297-12.965 19.18-26.371 24.559-33.215 7.332-9.3359 4.9492-19.742-1.1992-25.195zm-5.0273 20.305c-5.4688 6.9609-14.828 19.828-24.734 33.449-11.332 15.582-23.051 31.695-28.039 37.641-6.4922 7.7422-26.258 31.305-49.824 31.305h-42.246c-23.32 0-29.484-26.969-29.484-41.227v-124.52c0-4.9219 5.8047-6.2227 8.8711-6.2227 3.2461 0 8.7422 1.3086 8.7422 6.2227v64.84c0 2.1836 1.7734 3.957 3.957 3.957 2.1836 0 3.957-1.7734 3.957-3.957v-92.25c0-2.6484 0.92188-4.7344 2.7383-6.1992 5.0586-4.0742 17.691-2.5352 17.691 7.043v92.25c0 2.1836 1.7734 3.957 3.957 3.957 2.1836 0 3.957-1.7734 3.957-3.957l-0.003906-106.03c0-5.7148 6.5195-8.2852 11.148-8.2852 2.0234 0 8.6289 0.53906 8.6289 7.4414v13.504 93.723c0 2.1836 1.7734 3.957 3.957 3.957 2.1836 0 3.957-1.7734 3.957-3.957v-93.723c0-2.875 0.8125-5.082 2.418-6.5664 1.3867-1.2812 3.3516-1.9844 5.5469-1.9844 3.6875 0 9.1719 2.2773 9.1719 8.5508v102.47c0 9.1445 0 24.449 10.785 24.449 6.3438 0 14.629-8.8945 32.023-29.184 5.9297-6.9141 12.062-14.066 16.977-18.984 5.8438-5.8398 12.055-5.2656 15.625-2.0977 3.3828 2.9961 4.7617 8.6094 0.22266 14.383z"/>
  <path d="m209.86 412.99c-25.703 0-34.824 25.082-34.824 46.562 0 2.1836 1.7734 3.957 3.957 3.957 2.1836 0 3.957-1.7734 3.957-3.957 0-6.4531 1.2969-38.652 26.91-38.652 2.1836 0 3.957-1.7734 3.957-3.957 0-2.1797-1.7734-3.9531-3.957-3.9531z"/>
  <path d="m205.12 405.15c0-2.1836-1.7734-3.957-3.957-3.957h-46.766c-2.1836 0-3.957 1.7734-3.957 3.957s1.7734 3.957 3.957 3.957h46.766c2.1836 0 3.957-1.7734 3.957-3.957z"/>
  <path d="m144 401.2h-9.4688c-2.1836 0-3.957 1.7734-3.957 3.957s1.7734 3.957 3.957 3.957h9.4688c2.1836 0 3.957-1.7734 3.957-3.957s-1.7734-3.957-3.957-3.957z"/>
  <path d="m578.45 251.38c-10.363-2.8242-19.539 1.9609-22.27 11.5-5.1992 16.242-21.516 76.27-27.465 100.55-0.039063 0.019531-0.21875 0.039062-0.41797-0.054688-0.16797-0.078125-0.26562-0.20312-0.32422-0.41016-3.6133-12.426-11.914-47.016-17.977-72.27-2.8789-11.996-5.2539-21.883-6.3867-26.316-2.5938-10.172-11.609-15.441-22.379-13.121-10.465 2.2539-20.066 11.566-17.961 23.492 2.9023 12.297 10.293 48.574 13.906 66.43-2.0664-0.55859-4.3164-0.84766-6.7422-0.75-6.7656 0.3125-13.453 3.6289-16.512 9.5625-1.6133-2.1914-3.8438-3.9492-6.6289-5.1602-7.0625-3.0586-16.695-1.9414-22.91 2.668-4.793 3.5547-7.0742 8.6406-6.4219 14.324l5.9609 51.961 0.007813 0.074219c0.27344 2.3984 1.0508 4.5586 2.2344 6.4492v5.2539c0 29.02 15.219 58.395 44.312 58.395 7.7617 0 12.953-0.96094 16.691-2.2852 4.2695 1.8203 14.051 2.832 25.508 2.832 20.445 0 45.996-3.1992 54.008-10.66 8.0312-7.4766 13.789-21.258 14.008-33.512 0.16406-9.1055-2.6562-16.824-8.1523-22.324-1.3047-1.3047-3.5508-2.8359-6.6172-4.582 3.6289-18.766 23.23-119.9 27.535-137.52 3.1992-12.41-5.3477-21.898-15.008-24.527zm-107.63 97.492c0.97266-0.070312 9.4883-0.22266 9.8789 7.2227 0.57031 10.848 0.94141 15.766 1.5039 23.207l0.19141 2.5391c-5.2305 2.0312-9.6328 6.3125-12.301 11.375-4.0039 7.5938-4.5391 17.852 2.3281 24.762-2.1055-0.066407-4.1562-0.54297-5.832-1.5156-2.3398-1.3516-3.5977-3.4023-3.8047-6.0586-0.019531-0.33203-0.011718-0.66016-0.050781-0.99609l-0.042969-0.39062-0.85156-21.383-1.1914-29.93c-0.26563-6.6016 6.5391-8.6641 10.172-8.832zm-41.406 5.418c3.8164-2.8281 10.188-3.582 14.516-1.7031 2.6367 1.1445 4.1289 3.0781 4.4375 5.75l4.7188 41.113c0 0.015625 0.003906 0.03125 0.003906 0.050781l1.168 10.184 0.023438 0.625 0.003906 0.074219c0.007813 0.15625 0.035156 0.30078 0.046875 0.45703 0.12891 2.4219-0.86328 4.4844-3.0547 6.1055-3.8164 2.8281-10.191 3.582-14.516 1.7031-2.6367-1.1445-4.1289-3.0781-4.4375-5.75l-4.7188-41.113c0-0.015624-0.003907-0.03125-0.003907-0.050781l-1.2461-10.875c-0.30078-2.6328 0.72656-4.8438 3.0586-6.5703zm142.83 85.891c-0.20313 11.309-5.8477 22.387-11.316 27.48-8.3672 7.7891-46.578 9.6328-63.453 7.7461 0.48047-0.28906 0.94531-0.51562 1.4844-0.67188 2.2383-0.64844 3.5312-2.9961 2.8789-5.2344-0.64844-2.2383-2.9922-3.5273-5.2344-2.8789-2.8594 0.83203-4.7656 2.3359-6.4453 3.6641-3.0938 2.4453-6.6055 5.2188-19.676 5.2188-27.734 0-35.496-31.191-35.828-48.727 2.3633 0.83594 4.9102 1.3359 7.5352 1.3359 5.0703 0 10.262-1.5156 14.129-4.3828 1.0195-0.75781 1.9023-1.5977 2.6914-2.4844 0.97656 0.95312 2.0977 1.8008 3.3516 2.5273 3.0859 1.7891 6.793 2.6875 10.543 2.6875 3.2305 0 6.4766-0.70312 9.4062-2.043 13.785 7.5742 41.395 21.992 42.762 22.707 2.0625 1.082 4.6172 0.27734 5.6992-1.793 1.0781-2.0664 0.27734-4.6211-1.793-5.6992-0.39062-0.20312-39.16-20.449-48.125-25.723-6.8242-4.0117-6.0312-11.535-3.2773-16.754 2.9453-5.5859 9.0859-10.195 15.617-7.1406 5.2344 2.4531 13.215 5.8438 22.449 9.7656 18.5 7.8594 46.457 19.734 50.93 24.203 4.8398 4.8477 5.7539 11.484 5.6719 16.195zm13.02-166.33c-4.2578 17.43-22.508 111.44-27.16 135.5-9.6016-4.707-23.098-10.516-39.164-17.34-9.1602-3.8945-17.07-7.2539-22.168-9.6406-2.0195-0.94531-4.0273-1.4883-5.9922-1.6953l-0.15234-2.0078c-0.55859-7.3828-0.92578-12.262-1.4922-23.012-0.12891-2.4375-0.75-4.6484-1.7617-6.5977-1.2695-6.3086-12.18-60.516-15.84-76.004-1.1719-6.6719 4.9102-12.117 11.469-13.527 3.0312-0.65234 10.312-1.2812 12.414 6.9531 1.125 4.4141 3.4883 14.258 6.3555 26.199 6.082 25.336 14.414 60.035 18.082 72.652 1.1484 3.9531 4.8672 6.7266 8.9258 6.5703 3.9766-0.082032 7.1641-2.6445 8.125-6.5312 6.4258-26.062 22.512-84.887 27.359-100.03 1.7773-6.2031 7.5625-6.9922 11.965-5.8008 5.7305 1.5508 11 6.6836 9.0352 14.316z"/>
  <path d="m239.66 164.71-13.281-5.9766c-1.8945-0.85156-4.1289-0.007812-4.9844 1.8867-0.83984 1.8633-0.023437 4.0312 1.8008 4.9219-36 5.7969-62.699 36.223-62.699 74.109 0 2.082 1.6875 3.7695 3.7695 3.7695s3.7695-1.6875 3.7695-3.7695c0-33.699 23.473-60.859 55.305-66.516-1.2812 1.207-1.6328 3.1445-0.66016 4.6953 0.71484 1.1406 1.9414 1.7656 3.1953 1.7656 0.68359 0 1.375-0.18359 2-0.57812l12.242-7.6797c1.1758-0.73828 1.8516-2.0625 1.7578-3.4492-0.097656-1.3906-0.94922-2.6094-2.2148-3.1797z"/>
  <path d="m518.27 239.38 5.9766-13.281c0.85156-1.8945 0.007812-4.1289-1.8906-4.9844-1.8633-0.83984-4.0312-0.023438-4.9219 1.8008-5.7969-36-36.223-62.699-74.109-62.699-2.082 0-3.7695 1.6875-3.7695 3.7695s1.6875 3.7695 3.7695 3.7695c33.699 0 60.859 23.473 66.516 55.305-1.207-1.2812-3.1445-1.6328-4.6953-0.66016-1.1406 0.71484-1.7656 1.9414-1.7656 3.1953 0 0.68359 0.18359 1.375 0.57812 2l7.6797 12.242c0.73828 1.1758 2.0625 1.8516 3.4492 1.7578 1.3906-0.097656 2.6133-0.94531 3.1836-2.2148z"/>
  <path d="m294.6 428.43 5.0977 13.641c0.72656 1.9492 2.8984 2.9414 4.8477 2.2109 1.9141-0.71484 2.8828-2.8203 2.2305-4.7422 29.453 21.5 69.855 19.059 96.777-7.5977 1.4766-1.4648 1.4883-3.8516 0.027343-5.3281-1.4648-1.4766-3.8516-1.4883-5.3281-0.027343-23.945 23.715-59.758 26.148-86.176 7.5078 1.7578 0.058594 3.3828-1.0508 3.8008-2.832 0.30859-1.3125-0.11328-2.6211-0.99219-3.5117-0.48047-0.48438-1.1016-0.84766-1.8164-1.0156l-14.07-3.2969c-1.3516-0.31641-2.7695 0.13672-3.6875 1.1797-0.92969 1.0469-1.1992 2.5117-0.71094 3.8125z"/>
 
 </g>
</svg>
